name Walk5.mot
datacolumns 19
datarows 12
range 2.28400000 2.29500000
endheader

                time	   L_ground_force_vx	   L_ground_force_vy	   L_ground_force_vz	   L_ground_force_px	   L_ground_force_py	   L_ground_force_pz	   R_ground_force_vx	   R_ground_force_vy	   R_ground_force_vz	   R_ground_force_px	   R_ground_force_py	   R_ground_force_pz	   L_ground_torque_x	   L_ground_torque_y	   L_ground_torque_z	   R_ground_torque_x	   R_ground_torque_y	   R_ground_torque_z	
          2.28400000	         -0.00000000	         -0.00000000	          0.00000000	          0.00000000	          0.00000000	          0.00000000	          7.98179895	         22.41729626	          2.91782223	          0.20413912	          0.00000000	          0.01879457	          0.00000000	         -0.00000000	          0.00000000	          0.00000000	         -0.02130305	          0.00000000	
          2.28500000	         -0.00000000	         -0.00000000	          0.00000000	          0.00000000	          0.00000000	          0.00000000	          7.30733741	         20.45780135	          2.73878462	          0.19621991	          0.00000000	          0.01804488	          0.00000000	         -0.00000000	          0.00000000	          0.00000000	         -0.01739504	          0.00000000	
          2.28600000	          0.00000000	         -0.00000000	          0.00000000	          0.00000000	          0.00000000	          0.00000000	          6.66265740	         18.58780352	          2.56462178	          0.18824032	          0.00000000	          0.01729144	          0.00000000	         -0.00000000	          0.00000000	          0.00000000	         -0.01375413	          0.00000000	
          2.28700000	          0.00000000	         -0.00000000	          0.00000000	          0.00000000	          0.00000000	          0.00000000	          6.04762705	         16.80661477	          2.39557609	          0.18023018	          0.00000000	          0.01653693	          0.00000000	         -0.00000000	          0.00000000	          0.00000000	         -0.01037099	          0.00000000	
          2.28800000	          0.00000000	          0.00000000	          0.00000000	          0.00000000	          0.00000000	          0.00000000	          5.46203827	         15.11336888	          2.23185106	          0.17222038	          0.00000000	          0.01578410	          0.00000000	         -0.00000000	          0.00000000	          0.00000000	         -0.00723632	          0.00000000	
          2.28900000	          0.00000000	          0.00000000	          0.00000000	          0.00000000	          0.00000000	          0.00000000	          4.90559892	         13.50697990	          2.07361297	          0.16424082	          0.00000000	          0.01503564	          0.00000000	         -0.00000000	          0.00000000	          0.00000000	         -0.00434083	          0.00000000	
          2.29000000	          0.00000000	          0.00000000	         -0.00000000	          0.00000000	          0.00000000	          0.00000000	          4.37793324	         11.98613307	          1.92099324	          0.15631909	          0.00000000	          0.01429400	          0.00000000	         -0.00000000	          0.00000000	          0.00000000	         -0.00167513	          0.00000000	
          2.29100000	          0.00000000	          0.00000000	         -0.00000000	          0.00000000	          0.00000000	          0.00000000	          3.87858871	         10.54930216	          1.77409089	          0.14848021	          0.00000000	          0.01356141	          0.00000000	         -0.00000000	          0.00000000	          0.00000000	          0.00077026	          0.00000000	
          2.29200000	          0.00000000	          0.00000000	         -0.00000000	          0.00000000	          0.00000000	          0.00000000	          3.40704424	          9.19477324	          1.63297491	          0.14074675	          0.00000000	          0.01283985	          0.00000000	         -0.00000000	          0.00000000	          0.00000000	          0.00300482	          0.00000000	
          2.29300000	          0.00000000	          0.00000000	         -0.00000000	          0.00000000	          0.00000000	          0.00000000	          2.96271802	          7.92066711	          1.49768656	          0.13313897	          0.00000000	          0.01213113	          0.00000000	         -0.00000000	          0.00000000	          0.00000000	          0.00503803	          0.00000000	
          2.29400000	          0.00000000	          0.00000000	         -0.00000000	          0.00000000	          0.00000000	          0.00000000	          2.54497484	          6.72496042	          1.36824159	          0.12567493	          0.00000000	          0.01143683	          0.00000000	         -0.00000000	          0.00000000	          0.00000000	          0.00687933	          0.00000000	
          2.29500000	          0.00000000	          0.00000000	         -0.00000000	          0.00000000	          0.00000000	          0.00000000	          2.15313306	          5.60550564	          1.24463230	          0.11837062	          0.00000000	          0.01075834	          0.00000000	         -0.00000000	          0.00000000	          0.00000000	          0.00853808	          0.00000000	
